<svg width="178" height="68" viewBox="0 0 178 68" fill="none" xmlns="http://www.w3.org/2000/svg">
<path d="M79.8525 39.892V27.4062H81.6638V38.3404H88.426V39.892H79.8525Z" fill="#2DC86D"/>
<path d="M94.2162 40.001C93.3347 40.0239 92.4626 39.8157 91.6864 39.3972C90.9579 38.9926 90.3528 38.3979 89.9355 37.6765C89.5159 36.9124 89.2959 36.0547 89.2959 35.1829C89.2959 34.3112 89.5159 33.4535 89.9355 32.6894C90.3516 31.9702 90.9573 31.3791 91.6864 30.9808C92.4684 30.5763 93.3359 30.3652 94.2162 30.3652C95.0965 30.3652 95.964 30.5763 96.746 30.9808C97.4713 31.3767 98.0747 31.9634 98.4908 32.6773C98.9067 33.4459 99.1245 34.306 99.1245 35.1799C99.1245 36.0538 98.9067 36.9139 98.4908 37.6825C98.0756 38.4018 97.4724 38.9946 96.746 39.3972C95.969 39.8136 95.0974 40.0216 94.2162 40.001ZM94.2162 38.5036C94.7881 38.5118 95.3521 38.3703 95.8524 38.0931C96.3343 37.8204 96.7266 37.4134 96.9814 36.9218C97.2513 36.3754 97.3917 35.7742 97.3917 35.1648C97.3917 34.5554 97.2513 33.9542 96.9814 33.4079C96.7223 32.9256 96.3305 32.5275 95.8524 32.2607C95.3533 31.9806 94.7884 31.8388 94.2162 31.8502C93.6478 31.8389 93.0868 31.9807 92.5921 32.2607C92.117 32.5355 91.7232 32.9313 91.451 33.4079C91.1694 33.9507 91.0224 34.5533 91.0224 35.1648C91.0224 35.7764 91.1694 36.3789 91.451 36.9218C91.7191 37.4077 92.1133 37.8124 92.5921 38.0931C93.0879 38.3704 93.6481 38.512 94.2162 38.5036Z" fill="#2DC86D"/>
<path d="M105.64 39.9982C104.757 40.0218 103.882 39.8137 103.104 39.3944C102.377 38.9881 101.772 38.3938 101.353 37.6737C100.934 36.9096 100.714 36.0519 100.714 35.1801C100.714 34.3084 100.934 33.4507 101.353 32.6866C101.771 31.9687 102.377 31.3781 103.104 30.978C103.886 30.5638 104.757 30.3443 105.642 30.338C106.527 30.3317 107.4 30.5388 108.188 30.9417C108.913 31.3377 109.517 31.9243 109.933 32.6383C110.349 33.4069 110.567 34.267 110.567 35.1409C110.567 36.0148 110.349 36.8749 109.933 37.6435C109.523 38.3761 108.919 38.9819 108.188 39.3944C107.406 39.8149 106.528 40.0231 105.64 39.9982ZM105.64 38.5008C106.21 38.5085 106.772 38.367 107.27 38.0903C107.753 37.8163 108.147 37.4098 108.405 36.919C108.675 36.3726 108.816 35.7714 108.816 35.162C108.816 34.5526 108.675 33.9514 108.405 33.4051C108.142 32.9237 107.749 32.5262 107.27 32.2579C106.773 31.9785 106.21 31.8368 105.64 31.8474C105.072 31.8346 104.51 31.9765 104.016 32.2579C103.538 32.5294 103.144 32.926 102.875 33.4051C102.593 33.9479 102.446 34.5505 102.446 35.162C102.446 35.7736 102.593 36.3761 102.875 36.919C103.14 37.407 103.535 37.8123 104.016 38.0903C104.511 38.3689 105.072 38.5106 105.64 38.5008Z" fill="#2DC86D"/>
<path d="M113.018 43.3558V30.4353H114.66V32.9892L114.539 35.1688L114.72 37.3665V43.3438L113.018 43.3558ZM118.023 39.9989C117.271 40.0077 116.53 39.8204 115.873 39.4555C115.209 39.0805 114.668 38.5205 114.316 37.8435C113.895 37.0141 113.687 36.0927 113.712 35.1628C113.68 34.239 113.873 33.3212 114.273 32.4881C114.614 31.8102 115.15 31.2506 115.813 30.8821C116.484 30.5189 117.236 30.3339 117.999 30.3448C118.856 30.3272 119.704 30.5355 120.456 30.9485C121.164 31.345 121.751 31.9275 122.153 32.633C122.563 33.4131 122.777 34.2813 122.777 35.1628C122.777 36.0442 122.563 36.9125 122.153 37.6926C121.761 38.402 121.182 38.9907 120.48 39.3952C119.728 39.8085 118.881 40.0167 118.023 39.9989ZM117.878 38.5016C118.448 38.5099 119.01 38.3683 119.508 38.091C119.992 37.8172 120.388 37.4108 120.649 36.9197C120.927 36.3757 121.072 35.7736 121.072 35.1628C121.072 34.552 120.927 33.9499 120.649 33.4058C120.384 32.9241 119.988 32.5266 119.508 32.2587C119.011 31.9787 118.448 31.837 117.878 31.8481C117.313 31.8376 116.756 31.9794 116.266 32.2587C115.786 32.5292 115.389 32.926 115.119 33.4058C114.845 33.951 114.702 34.5527 114.702 35.1628C114.702 35.7729 114.845 36.3746 115.119 36.9197C115.384 37.4099 115.781 37.8157 116.266 38.091C116.758 38.3676 117.314 38.5092 117.878 38.5016Z" fill="#2DC86D"/>
<path d="M127.979 39.9991C127.221 40.002 126.466 39.8942 125.739 39.6791C125.14 39.5167 124.574 39.2511 124.066 38.8942L124.785 37.5358C125.253 37.8416 125.764 38.0776 126.3 38.2361C126.886 38.4224 127.497 38.5181 128.112 38.5199C128.707 38.5624 129.303 38.4457 129.838 38.1818C130.002 38.0845 130.137 37.9454 130.229 37.7789C130.322 37.6123 130.368 37.4242 130.364 37.2339C130.37 37.101 130.344 36.9686 130.288 36.8478C130.232 36.727 130.149 36.6213 130.044 36.5395C129.79 36.356 129.499 36.2284 129.192 36.1652C128.842 36.0807 128.456 36.0082 128.027 35.9418C127.598 35.8754 127.17 35.7909 126.741 35.6882C126.322 35.5993 125.916 35.4573 125.534 35.2656C125.184 35.0885 124.888 34.8218 124.676 34.4928C124.442 34.0973 124.331 33.6414 124.356 33.1826C124.344 32.6443 124.512 32.1173 124.833 31.6853C125.188 31.2331 125.663 30.89 126.204 30.6951C126.874 30.4491 127.585 30.3304 128.299 30.3449C128.933 30.3491 129.565 30.424 130.183 30.5683C130.733 30.6763 131.261 30.8807 131.74 31.1721L131.01 32.5306C130.603 32.2507 130.149 32.0462 129.669 31.9268C129.214 31.8236 128.748 31.771 128.281 31.7698C127.698 31.7306 127.117 31.8562 126.602 32.1321C126.436 32.2264 126.298 32.3623 126.2 32.5264C126.103 32.6905 126.05 32.8771 126.047 33.0679C126.039 33.2092 126.065 33.3503 126.123 33.4795C126.18 33.6087 126.268 33.7222 126.379 33.8105C126.635 34.0007 126.926 34.1382 127.236 34.2151C127.622 34.3156 128.013 34.3942 128.407 34.4505C128.836 34.5169 129.259 34.6015 129.687 34.7041C130.093 34.7977 130.486 34.9375 130.859 35.1207C131.214 35.3049 131.515 35.5773 131.734 35.9116C131.974 36.3402 132.086 36.8288 132.056 37.3191C132.026 37.8094 131.856 38.2807 131.565 38.6769C131.189 39.1223 130.702 39.4598 130.152 39.655C129.455 39.8999 128.718 40.0165 127.979 39.9991Z" fill="#2DC86D"/>
<path d="M138.419 39.9994C137.522 40.0221 136.634 39.8143 135.841 39.3956C135.101 38.9978 134.485 38.4047 134.06 37.681C133.64 36.9158 133.42 36.0571 133.42 35.1844C133.42 34.3117 133.64 33.4531 134.06 32.6879C134.477 31.9498 135.094 31.3449 135.841 30.943C136.635 30.5269 137.522 30.3192 138.419 30.3392C139.212 30.3246 139.996 30.5006 140.707 30.8524C141.371 31.1798 141.917 31.705 142.271 32.3558L140.967 33.195C140.686 32.7579 140.294 32.4036 139.831 32.1686C139.378 31.9494 138.88 31.8398 138.376 31.8486C137.796 31.8367 137.224 31.9784 136.716 32.2592C136.231 32.5264 135.829 32.9237 135.557 33.4063C135.259 33.9429 135.111 34.5498 135.128 35.1633C135.111 35.7806 135.259 36.3915 135.557 36.9323C135.827 37.4198 136.229 37.8215 136.716 38.0915C137.225 38.3697 137.797 38.5112 138.376 38.5021C138.873 38.5063 139.363 38.3925 139.807 38.17C140.272 37.937 140.664 37.5822 140.942 37.1436L142.247 37.9647C141.888 38.6133 141.344 39.1391 140.683 39.4741C139.981 39.8291 139.205 40.0093 138.419 39.9994Z" fill="#2DC86D"/>
<path d="M144.57 39.8894V30.4345H146.225V33.0065L146.062 32.3605C146.314 31.7224 146.782 31.1927 147.384 30.8632C148.088 30.4986 148.874 30.3198 149.666 30.344V32.0043C149.598 31.9985 149.529 31.9985 149.461 32.0043H149.243C148.844 31.9845 148.445 32.0473 148.071 32.1885C147.697 32.3298 147.356 32.5466 147.07 32.8254C146.51 33.4727 146.229 34.3143 146.285 35.168V39.8774L144.57 39.8894Z" fill="#2DC86D"/>
<path d="M152.71 28.6163C152.557 28.6212 152.403 28.5949 152.26 28.5388C152.117 28.4828 151.987 28.3982 151.877 28.2903C151.771 28.1894 151.687 28.0674 151.631 27.9323C151.575 27.7971 151.548 27.6517 151.551 27.5054C151.547 27.3563 151.575 27.2081 151.631 27.07C151.687 26.9318 151.771 26.8067 151.877 26.7024C152.105 26.4979 152.401 26.3848 152.707 26.3848C153.014 26.3848 153.309 26.4979 153.537 26.7024C153.646 26.8004 153.732 26.9208 153.789 27.0553C153.847 27.1897 153.874 27.3351 153.87 27.4812C153.873 27.6306 153.846 27.7791 153.791 27.918C153.736 28.0569 153.654 28.1835 153.55 28.2903C153.439 28.399 153.308 28.484 153.164 28.5401C153.019 28.5961 152.865 28.6221 152.71 28.6163ZM151.853 39.8885V30.4336H153.568V39.8885H151.853Z" fill="#2DC86D"/>
<path d="M156.917 39.8907V26.6562H158.632V32.9535L158.451 35.1451L158.559 37.3428V39.8907H156.917ZM161.922 39.9994C161.157 40.0103 160.402 39.8231 159.731 39.456C159.072 39.0815 158.538 38.5207 158.197 37.844C157.796 37.0088 157.604 36.089 157.635 35.1633C157.611 34.2353 157.818 33.3159 158.239 32.4886C158.589 31.8137 159.128 31.2555 159.791 30.8826C160.444 30.525 161.177 30.3381 161.922 30.3392C162.78 30.3217 163.627 30.5299 164.379 30.943C165.088 31.3394 165.675 31.9219 166.076 32.6275C166.486 33.4076 166.701 34.2758 166.701 35.1572C166.701 36.0387 166.486 36.9069 166.076 37.687C165.682 38.4002 165.099 38.9913 164.392 39.3956C163.636 39.811 162.784 40.0193 161.922 39.9994ZM161.777 38.5021C162.347 38.5098 162.909 38.3682 163.407 38.0915C163.892 37.8176 164.287 37.4113 164.549 36.9202C164.826 36.3762 164.971 35.7741 164.971 35.1633C164.971 34.5524 164.826 33.9503 164.549 33.4063C164.283 32.9245 163.888 32.527 163.407 32.2592C162.909 31.9897 162.35 31.8485 161.783 31.8485C161.216 31.8485 160.658 31.9897 160.159 32.2592C159.682 32.5306 159.287 32.9272 159.018 33.4063C158.744 33.9515 158.601 34.5531 158.601 35.1633C158.601 35.7734 158.744 36.3751 159.018 36.9202C159.283 37.4082 159.678 37.8135 160.159 38.0915C160.657 38.3693 161.219 38.5109 161.789 38.5021H161.777Z" fill="#2DC86D"/>
<path d="M173.394 40C172.468 40.027 171.55 39.8193 170.726 39.3963C169.973 39.0055 169.346 38.4114 168.914 37.6816C168.506 36.9127 168.293 36.0555 168.293 35.185C168.293 34.3146 168.506 33.4574 168.914 32.6885C169.309 31.9737 169.894 31.3823 170.605 30.9798C171.353 30.5777 172.189 30.3672 173.038 30.3672C173.887 30.3672 174.723 30.5777 175.471 30.9798C176.169 31.382 176.74 31.9719 177.12 32.6824C177.534 33.4711 177.741 34.3518 177.723 35.2424C177.723 35.3148 177.723 35.3994 177.723 35.496C177.723 35.5926 177.723 35.6771 177.723 35.7616H169.639V34.5541H176.794L176.099 34.9828C176.12 34.4178 175.991 33.8574 175.725 33.3587C175.474 32.894 175.1 32.5074 174.644 32.2417C174.155 31.9801 173.608 31.8432 173.053 31.8432C172.498 31.8432 171.952 31.9801 171.462 32.2417C171.011 32.4969 170.636 32.8679 170.376 33.3164C170.108 33.8262 169.973 34.3951 169.983 34.9707V35.2545C169.974 35.8457 170.126 36.4282 170.424 36.939C170.71 37.4292 171.128 37.8289 171.631 38.0922C172.193 38.3742 172.814 38.5151 173.443 38.5027C173.964 38.5088 174.48 38.4124 174.964 38.2189C175.425 38.0259 175.837 37.7331 176.172 37.3616L177.12 38.4665C176.686 38.9699 176.137 39.3613 175.52 39.6076C174.844 39.8784 174.122 40.0119 173.394 40Z" fill="#2DC86D"/>
<rect x="1.8855" y="1.91992" width="64.6875" height="64.6875" rx="18.1553" fill="#2DC86D" stroke="#2DC86D" stroke-width="2.5"/>
<mask id="mask0_2771_4960" style="mask-type:alpha" maskUnits="userSpaceOnUse" x="3" y="3" width="63" height="63">
<path d="M48.7427 3H19.6474C10.4542 3 3.00171 10.4525 3.00171 19.6457V48.741C3.00171 57.9342 10.4542 65.3867 19.6474 65.3867H48.7427C57.9359 65.3867 65.3884 57.9342 65.3884 48.741V19.6457C65.3884 10.4525 57.9359 3 48.7427 3Z" fill="#2DC86D"/>
</mask>
<g mask="url(#mask0_2771_4960)">
<path d="M-5.25122 38.6919C7.15005 38.6014 39.5298 58.4772 42.1743 88.4419C43.2792 88.1702 82.4271 68.2521 82.4271 68.2521C74.8499 42.1937 66.6749 21.4123 30.1353 15.4531C17.3942 21.6536 5.50151 29.4637 -5.25122 38.6919Z" fill="#B9EDCE"/>
<path d="M6.40137 22.9103C18.4766 25.8205 45.0421 52.9414 40.375 82.6828C41.5162 82.6828 84.3168 72.8294 84.3168 72.8294C83.2723 45.7144 80.3682 23.5684 46.3523 8.94531C32.4928 11.8722 19.0661 16.5655 6.40137 22.9103Z" fill="white"/>
<path d="M29.0304 30.4797L28.6199 30.0329C28.7467 29.9122 41.7758 18.0241 57.1416 20.0708L57.0631 20.6746C41.9811 18.658 29.1572 30.3348 29.0304 30.4797Z" fill="#2DC86D"/>
<path d="M34.4047 38.2524L33.9941 37.8116C34.1209 37.6909 47.1562 25.7968 62.5159 27.8194L62.4374 28.4231C47.3614 26.4307 34.5315 38.1316 34.4047 38.2524Z" fill="#2DC86D"/>
<path d="M39.7775 46.0336L39.3669 45.5929C39.4998 45.4721 52.5289 33.578 67.8947 35.6006L67.8162 36.2044C52.7403 34.2059 39.9043 45.9008 39.7775 46.0336Z" fill="#2DC86D"/>
<path d="M45.1503 53.7934L44.7397 53.3526C44.8726 53.2319 57.9018 41.3378 73.2675 43.3604L73.189 43.9641C58.107 41.9778 45.2771 53.6726 45.1503 53.7934Z" fill="#2DC86D"/>
</g>
</svg>
